<?xml version="1.0" standalone="no"?>
<!DOCTYPE svg PUBLIC "-//W3C//DTD SVG 20010904//EN"
 "http://www.w3.org/TR/2001/REC-SVG-20010904/DTD/svg10.dtd">
<svg version="1.0" xmlns="http://www.w3.org/2000/svg"
 width="204.000000pt" height="86.000000pt" viewBox="0 0 204.000000 86.000000"
 preserveAspectRatio="xMidYMid meet">

<g transform="translate(0.000000,86.000000) scale(0.100000,-0.100000)"
fill="#000000" stroke="none">
<path d="M991 835 c-105 -19 -121 -30 -26 -18 109 13 402 10 416 -4 13 -13 -7
-110 -36 -179 l-14 -34 -202 0 c-111 0 -200 -2 -197 -5 2 -3 111 -7 241 -11
l237 -5 -16 28 c-16 26 -15 33 0 85 9 31 28 71 43 88 23 28 31 32 64 27 84
-11 151 -66 153 -126 l1 -30 30 29 c29 28 31 28 59 13 19 -10 68 -17 138 -21
74 -3 111 -9 119 -19 19 -22 3 -26 -32 -8 -41 22 -104 14 -176 -21 -62 -30
-67 -51 -20 -78 l32 -18 -25 -10 c-14 -6 -69 -7 -130 -4 -94 6 -109 4 -142
-14 -50 -27 -86 -25 -130 5 -21 14 -57 28 -81 31 -40 6 -48 3 -93 -31 -73 -57
-216 -120 -335 -149 -123 -30 -142 -31 -197 -12 -35 13 -48 13 -94 0 -109 -29
-380 -13 -517 31 -32 10 -26 -19 9 -49 36 -30 82 -44 200 -61 47 -7 72 -13 55
-14 -33 -1 -272 36 -286 45 -14 8 -10 -43 5 -81 17 -40 54 -61 140 -81 l61
-14 -59 6 c-53 5 -112 20 -159 39 -12 5 -17 3 -17 -8 0 -27 93 -52 327 -89
223 -35 741 -27 788 12 7 6 15 50 19 104 11 148 38 230 99 294 46 48 87 45
142 -11 56 -55 69 -104 61 -219 l-7 -86 68 15 c37 8 120 32 183 52 78 25 123
35 140 30 14 -4 51 -7 82 -8 48 -1 59 2 72 21 23 32 20 45 -3 17 -22 -28 -38
-20 -22 9 6 12 11 29 10 39 0 15 -2 14 -9 -4 -14 -36 -30 -27 -30 16 0 31 4
41 21 46 26 9 39 -4 49 -47 l8 -33 1 32 c1 17 -6 38 -14 47 -8 8 -15 19 -15
24 0 5 7 15 15 22 8 7 15 17 15 23 0 6 -7 1 -16 -11 -8 -12 -20 -20 -25 -17
-5 4 -9 1 -9 -4 0 -6 -7 -11 -15 -11 -16 0 -19 28 -9 68 8 28 21 28 27 0 2
-13 5 -4 6 20 1 43 8 51 29 30 15 -15 15 -6 0 27 -13 30 -24 31 -51 7 -19 -17
-20 -16 -8 6 16 31 39 38 59 19 11 -12 16 -41 19 -109 2 -50 6 -94 8 -97 5 -4
9 215 5 254 -3 33 -17 39 -96 42 -78 3 -147 25 -266 84 -114 57 -185 70 -398
75 -142 2 -218 -1 -279 -11z m910 -396 c-8 -31 -9 -31 -11 -9 -1 14 -9 -5 -19
-45 l-16 -70 -170 -56 c-225 -75 -225 -75 -224 -47 0 19 2 20 7 6 6 -16 18
-14 124 22 118 39 237 93 251 114 4 6 14 35 23 65 12 38 19 50 25 40 7 -11 9
-10 9 5 0 11 3 17 6 14 3 -3 1 -21 -5 -39z m-14 -86 c-3 -10 -5 -4 -5 12 0 17
2 24 5 18 2 -7 2 -21 0 -30z m-23 -70 c-10 -7 -25 -13 -33 -12 -9 0 -4 5 12
11 15 5 27 17 28 26 0 13 2 14 6 3 3 -8 -2 -20 -13 -28z m-1406 -40 c-15 -2
-42 -2 -60 0 -18 2 -6 4 27 4 33 0 48 -2 33 -4z m327 -23 c13 -14 13 -19 -4
-50 -33 -62 -61 -75 -169 -78 -53 -2 -137 1 -187 7 -75 8 -62 8 82 4 161 -5
173 -4 205 15 42 26 75 79 59 95 -7 7 -65 14 -134 18 l-122 7 127 -2 c100 -1
131 -4 143 -16z m-96 -6 c48 -6 61 -10 61 -24 0 -19 -22 -41 -60 -60 -57 -30
-478 -4 -562 35 -25 11 -27 14 -8 10 14 -3 86 -12 160 -20 166 -18 311 -20
328 -3 20 20 13 46 -15 56 l-28 10 31 1 c17 1 59 -2 93 -5z m-376 -101 c-13
-2 -33 -2 -45 0 -13 2 -3 4 22 4 25 0 35 -2 23 -4z"/>
<path d="M1268 813 c6 -2 18 -2 25 0 6 3 1 5 -13 5 -14 0 -19 -2 -12 -5z"/>
<path d="M1348 803 c17 -7 15 -31 -8 -107 -23 -74 -23 -74 -135 -79 l-70 -3
83 -2 c100 -2 111 6 137 101 18 67 16 98 -7 96 -10 0 -10 -2 0 -6z"/>
<path d="M1510 617 c-25 -24 -52 -46 -60 -49 -13 -4 -13 -7 -1 -21 17 -22 33
-21 62 1 13 11 45 22 70 25 51 7 99 26 99 38 0 12 -51 36 -90 43 -31 6 -40 2
-80 -37z m150 2 c21 -11 -35 -32 -63 -23 -13 4 -17 2 -13 -5 4 -6 2 -11 -3
-11 -12 0 -15 42 -5 53 7 7 62 -2 84 -14z"/>
<path d="M678 593 c29 -2 74 -2 100 0 26 2 2 3 -53 3 -55 0 -76 -1 -47 -3z"/>
<path d="M675 565 c-87 -15 -221 -53 -258 -72 -16 -8 -62 -21 -104 -29 -41 -8
-96 -23 -120 -34 -25 -11 -57 -20 -71 -20 -16 0 -22 -4 -16 -9 5 -5 86 -16
179 -25 231 -22 246 -19 520 99 22 9 36 13 30 7 -19 -17 -219 -101 -280 -117
-76 -19 -232 -19 -354 0 -106 18 -135 14 -39 -5 96 -19 309 -24 381 -10 34 6
134 45 224 86 89 41 193 86 230 100 59 21 54 24 -12 8 -17 -4 -17 -3 3 9 12 7
19 16 16 20 -12 11 -253 6 -329 -8z"/>
<path d="M1375 560 c-16 -4 -24 -8 -16 -9 8 0 29 -12 48 -27 34 -25 39 -21 27
24 -7 23 -11 24 -59 12z"/>
<path d="M1067 535 c-20 -8 -83 -39 -140 -69 -56 -30 -133 -67 -172 -82 -83
-34 -68 -40 53 -24 102 13 179 42 302 113 l90 51 -31 13 c-38 16 -53 16 -102
-2z m86 -2 c12 -12 -31 -33 -79 -39 -28 -3 -79 -23 -128 -50 -77 -41 -186 -85
-210 -84 -6 1 25 16 69 34 44 18 128 58 188 89 100 53 144 67 160 50z"/>
<path d="M1274 481 c-42 -26 -70 -63 -88 -119 -18 -53 -36 -167 -36 -228 0
-61 -21 -75 -135 -87 -52 -6 -95 -13 -95 -17 0 -17 44 -22 220 -27 l185 -5 37
32 c68 57 74 148 12 178 -44 20 -43 32 3 57 55 29 68 63 48 124 -29 87 -94
127 -151 92z m114 -67 c41 -28 24 -116 -28 -144 -36 -19 -45 -4 -46 80 0 80 0
80 26 80 14 0 36 -7 48 -16z m-88 -113 c0 -46 -14 -61 -57 -61 -28 0 -33 3
-33 24 0 32 17 76 38 99 16 18 17 18 34 -3 10 -12 18 -39 18 -59z m7 -135 c-4
-29 -15 -49 -38 -69 -38 -34 -48 -28 -55 39 l-6 49 39 16 c54 22 66 15 60 -35z
m58 28 c19 -20 25 -38 25 -69 0 -37 -5 -48 -35 -74 -35 -30 -68 -40 -79 -22
-3 5 1 15 10 22 31 26 47 71 41 121 -7 55 2 60 38 22z"/>
</g>
</svg>
