<?xml version="1.0" standalone="no"?>
<!DOCTYPE svg PUBLIC "-//W3C//DTD SVG 20010904//EN"
 "http://www.w3.org/TR/2001/REC-SVG-20010904/DTD/svg10.dtd">
<svg version="1.0" xmlns="http://www.w3.org/2000/svg"
 width="570.000000pt" height="573.000000pt" viewBox="0 0 570.000000 573.000000"
 preserveAspectRatio="xMidYMid meet">

<g transform="translate(0.000000,573.000000) scale(0.100000,-0.100000)"
fill="#000000" stroke="none">
<path d="M2920 3810 c47 -5 140 -14 208 -21 68 -6 135 -14 150 -19 l27 -7 -25
-6 c-14 -3 -71 -15 -128 -27 -56 -11 -148 -36 -205 -55 -95 -31 -107 -33 -172
-24 -106 13 -778 24 -799 12 -12 -7 51 -12 206 -17 270 -8 431 -20 600 -43
l126 -17 79 36 c171 78 307 108 547 122 131 8 118 13 -134 46 -95 13 -234 22
-360 25 -159 3 -186 2 -120 -5z"/>
<path d="M3415 3675 c-107 -28 -205 -72 -298 -134 l-68 -45 -167 20 c-223 26
-609 26 -760 1 -123 -21 -218 -42 -287 -64 -56 -17 -87 -38 -36 -23 53 15 188
38 301 51 179 22 680 14 680 -9 0 -4 -51 -18 -113 -31 -128 -27 -255 -70 -342
-114 -52 -26 -79 -32 -195 -43 -123 -12 -322 -42 -410 -63 -22 -5 -30 -10 -20
-14 63 -24 720 -51 720 -29 0 7 -22 29 -49 49 -28 21 -49 42 -47 47 5 20 232
83 416 115 375 67 913 77 1398 27 l123 -13 45 -44 c43 -43 44 -44 44 -110 0
-37 5 -80 10 -95 10 -26 11 -26 30 -9 11 10 20 22 20 27 0 23 69 146 98 175
20 21 27 33 18 33 -21 0 -74 -48 -102 -92 -31 -49 -44 -48 -44 1 0 35 -6 45
-50 83 -57 50 -50 48 -415 83 -246 24 -229 18 -255 76 -24 51 -47 69 -30 23 6
-14 10 -37 10 -51 0 -25 -1 -25 -52 -19 -29 3 -111 9 -182 12 l-130 7 30 23
c48 39 164 92 239 110 107 25 241 21 348 -11 49 -14 106 -35 128 -46 22 -11
45 -19 51 -17 14 5 -140 82 -202 102 -139 44 -313 49 -455 11z"/>
<path d="M4412 3465 c3 -3 59 -17 124 -31 85 -18 128 -32 152 -51 36 -27 76
-102 69 -131 -2 -12 -8 -6 -19 19 -19 44 -62 79 -96 79 -39 0 -103 -73 -124
-141 -22 -69 -24 -210 -4 -267 l15 -41 -32 -5 c-18 -3 -82 -12 -143 -20 -318
-42 -716 -179 -983 -336 l-54 -32 7 43 c29 176 26 316 -10 451 -10 37 -16 69
-13 72 11 11 203 55 304 70 190 27 575 45 601 28 16 -10 -3 -143 -22 -158 -8
-7 -36 -15 -61 -19 -51 -7 -260 -76 -290 -95 -16 -10 -15 -11 7 -5 53 12 318
76 365 88 l50 12 17 95 c27 150 48 134 -174 127 -327 -11 -639 -56 -790 -115
-24 -10 -28 -8 -55 30 -36 53 -106 98 -152 98 -82 0 -171 -75 -230 -194 -37
-76 -56 -152 -107 -421 -41 -220 -48 -234 -120 -254 -43 -12 -158 -14 -218 -4
-38 6 -40 8 -92 120 -46 96 -59 116 -87 127 -17 8 -117 22 -222 31 -234 20
-763 70 -905 86 -136 15 -168 8 -67 -15 42 -10 80 -22 83 -27 3 -5 -22 -9 -55
-9 -91 0 -81 -15 19 -29 49 -7 102 -16 117 -20 26 -8 24 -9 -22 -15 -96 -14
-91 -22 22 -35 118 -14 169 -31 96 -31 -82 0 -43 -18 54 -25 97 -7 163 -24 96
-25 -71 0 -37 -19 58 -31 55 -7 102 -16 105 -21 3 -4 -5 -8 -17 -8 -14 0 -19
-4 -13 -9 8 -8 235 -36 389 -48 70 -6 98 -23 39 -24 -71 -1 -7 -16 102 -24
116 -8 147 -19 85 -30 -23 -4 -41 -8 -39 -10 2 -2 120 -17 263 -34 143 -17
332 -41 421 -52 217 -28 192 -35 431 137 215 156 532 327 754 407 215 78 265
89 434 91 120 1 156 5 182 19 91 48 146 275 109 452 -22 107 -32 119 -103 134
-101 20 -262 36 -251 26z m289 -169 c14 -31 6 -63 -26 -101 l-25 -30 5 30 c2
17 7 51 10 78 7 52 20 60 36 23z m-87 -8 c3 -13 6 -41 6 -63 l-1 -40 -19 24
c-27 31 -35 68 -20 86 17 21 27 19 34 -7z m-34 -140 c0 -7 -48 -1 -58 8 -2 1
-1 12 3 24 l7 22 24 -23 c13 -12 24 -26 24 -31z m168 20 c-2 -14 -13 -24 -30
-29 -38 -10 -43 1 -11 28 35 28 45 29 41 1z m-1539 -42 c34 -35 35 -37 22 -74
-18 -52 -84 -163 -112 -187 -22 -20 -22 -20 -14 0 14 37 24 99 31 207 8 120 9
121 73 54z m-185 7 c10 -32 26 -157 26 -205 0 -48 -13 -64 -24 -30 -3 9 -26
53 -51 96 l-45 79 31 38 c33 42 54 49 63 22z m1606 -32 c0 -23 -16 -36 -25
-21 -9 14 1 40 15 40 5 0 10 -9 10 -19z m-60 -18 c0 -12 -33 -43 -47 -43 -17
0 -17 37 0 43 18 8 47 8 47 0z m175 -22 c0 -22 -18 -22 -45 0 l-25 20 35 -3
c22 -2 35 -8 35 -17z m-51 -60 c26 -37 27 -41 13 -68 -17 -30 -18 -29 -36 42
-11 41 -14 65 -7 65 2 0 15 -18 30 -39z m-114 17 c0 -7 -10 -28 -21 -47 -19
-31 -22 -33 -31 -17 -8 14 -4 24 18 47 31 33 34 34 34 17z m54 -140 c-5 -18
-39 -25 -48 -10 -4 7 13 79 32 132 7 20 22 -100 16 -122z m-1688 -30 c15 -21
25 -40 22 -43 -2 -2 -20 0 -39 5 -18 5 -47 12 -62 15 -26 5 -28 8 -22 38 4 18
12 40 17 50 9 18 11 18 33 -3 13 -13 36 -40 51 -62z m359 20 c7 -46 6 -48 -21
-59 -16 -6 -56 -13 -89 -16 l-60 -6 41 31 c23 17 57 48 75 71 19 22 37 37 41
33 3 -4 9 -28 13 -54z m-245 -107 c15 -28 12 -63 -6 -89 -13 -18 -19 -21 -30
-11 -25 21 -12 119 16 119 5 0 14 -9 20 -19z m-107 -74 c-11 -19 -73 -71 -101
-86 -27 -14 -35 -1 -30 50 3 37 22 46 96 48 33 1 41 -2 35 -12z m302 -5 l50
-7 -3 -35 c-2 -19 -7 -38 -11 -43 -6 -6 -125 65 -150 89 -6 6 56 3 114 -4z
m-1312 -92 c35 -39 38 -114 6 -149 -26 -28 -63 -42 -86 -34 -33 11 -73 56 -79
89 -20 109 87 173 159 94z m209 -20 c47 -51 49 -105 5 -155 -32 -36 -75 -42
-111 -14 -66 52 -68 150 -3 190 40 24 73 18 109 -21z m1019 -7 c15 -15 39 -47
55 -71 l28 -43 -27 -55 c-15 -30 -31 -54 -36 -54 -5 0 -12 19 -16 41 -4 23
-20 80 -36 127 -16 47 -29 90 -29 94 0 13 32 -7 61 -39z m-197 5 c-11 -36 -63
-148 -78 -170 -14 -20 -15 -20 -30 10 -25 48 -20 60 42 123 62 62 77 71 66 37z
m92 -75 c4 -32 8 -101 8 -153 l1 -95 -35 -3 c-19 -2 -44 4 -55 12 -19 14 -19
14 3 77 19 54 51 186 52 212 0 4 4 7 9 7 5 0 13 -26 17 -57z"/>
<path d="M1840 2570 c-40 -40 -14 -120 39 -120 37 0 55 23 54 68 -1 25 -8 42
-23 54 -29 23 -45 23 -70 -2z"/>
<path d="M2064 2562 c-22 -14 -35 -53 -29 -83 13 -57 80 -75 106 -27 29 54
-31 141 -77 110z"/>
<path d="M2949 3306 c-31 -12 -70 -32 -86 -44 -49 -35 -155 -153 -208 -232
-27 -40 -55 -75 -62 -77 -18 -6 -34 32 -41 100 -7 54 -10 62 -27 59 -123 -19
-681 -6 -1030 25 -38 3 -67 3 -64 -1 15 -16 686 -84 912 -93 l147 -6 0 -86 c0
-143 24 -190 90 -176 39 9 52 27 98 133 82 190 182 324 290 384 79 45 70 51
-19 14z"/>
<path d="M1325 3005 c50 -8 151 -21 225 -30 188 -22 196 -25 215 -88 27 -91
32 -87 -112 -88 l-128 -2 143 -20 c112 -16 145 -18 154 -9 10 10 8 31 -10 99
-12 48 -29 94 -37 104 -13 13 -42 18 -143 24 -70 4 -134 9 -143 10 -9 2 -70 6
-135 9 l-119 5 90 -14z"/>
<path d="M4115 2686 c-271 -91 -532 -229 -778 -412 -185 -138 -460 -394 -443
-412 4 -3 49 -12 99 -18 106 -13 99 -16 165 71 61 80 268 291 367 374 207 173
447 318 670 406 134 52 91 48 -80 -9z"/>
</g>
</svg>
